<svg xmlns="http://www.w3.org/2000/svg" xml:space="preserve" width="800" height="800" viewBox="-76.74 -76.74 665.08 665.08"><rect width="665.08" height="665.08" x="-76.74" y="-76.74" fill="transparent" stroke-width="0" rx="0"/><path d="M31.975 213.169c0 5.887-4.778 10.664-10.664 10.664s-10.648-4.777-10.648-10.664c0-5.886 4.762-10.655 10.648-10.655s10.664 4.769 10.664 10.655zM500.937 213.169c0 5.887-4.763 10.664-10.647 10.664-5.887 0-10.664-4.777-10.664-10.664 0-5.886 4.777-10.655 10.664-10.655 5.884 0 10.647 4.769 10.647 10.655z" style="fill:#ccd1d9"/><path d="M490.289 245.145c0 5.886-4.778 10.663-10.664 10.663H31.975c-5.886 0-10.664-4.777-10.664-10.663v-63.95c0-5.887 4.777-10.656 10.664-10.656h447.65c5.886 0 10.664 4.77 10.664 10.656v63.95z" style="fill:#656d78"/><path d="M373.036 0H74.598v468.977h362.389V63.95z" style="fill:#e6e9ed"/><path d="M501.295 490.398c1.25 11.679-7.322 21.202-19.047 21.202H29.352c-11.725 0-20.296-9.523-19.047-21.202l27.432-256.034c1.249-11.654 11.866-21.194 23.591-21.194h388.947c11.725 0 22.342 9.54 23.59 21.194l27.43 256.034z" style="fill:#656d78"/><path d="M120.515 250.765c4.075 1.077 9.056 2.537 14.832 4.224 28.197 8.243 75.285 22.014 120.453 22.123 45.167-.109 92.256-13.88 120.452-22.123 5.777-1.687 10.758-3.146 14.832-4.224 19.922-5.27 54.131-10.546 84.872 3.092l-2.093-19.493c-1.248-11.654-11.865-21.194-23.59-21.194H61.327c-11.725 0-22.342 9.54-23.591 21.194l-2.092 19.493c30.741-13.638 64.949-8.362 84.871-3.092z" style="fill:#434a54"/><path d="M106.588 351.725c5.886 0 10.664-4.762 10.664-10.647s-4.777-10.648-10.664-10.648c-5.886 0-10.647 4.763-10.647 10.648s4.761 10.647 10.647 10.647zM149.227 351.725c5.886 0 10.664-4.762 10.664-10.647s-4.777-10.648-10.664-10.648c-5.886 0-10.664 4.763-10.664 10.648s4.778 10.647 10.664 10.647zM191.865 351.725c5.886 0 10.648-4.762 10.648-10.647s-4.762-10.648-10.648-10.648-10.664 4.763-10.664 10.648 4.778 10.647 10.664 10.647zM234.488 351.725c5.886 0 10.664-4.762 10.664-10.647s-4.778-10.648-10.664-10.648-10.648 4.763-10.648 10.648 4.762 10.647 10.648 10.647zM277.127 351.725c5.886 0 10.664-4.762 10.664-10.647s-4.778-10.648-10.664-10.648c-5.887 0-10.664 4.763-10.664 10.648s4.777 10.647 10.664 10.647zM319.766 351.725c5.886 0 10.647-4.762 10.647-10.647s-4.762-10.648-10.647-10.648c-5.887 0-10.664 4.763-10.664 10.648s4.777 10.647 10.664 10.647zM362.389 351.725c5.886 0 10.663-4.762 10.663-10.647s-4.777-10.648-10.663-10.648c-5.887 0-10.648 4.763-10.648 10.648s4.761 10.647 10.648 10.647zM405.028 351.725c5.886 0 10.663-4.762 10.663-10.647s-4.777-10.648-10.663-10.648c-5.887 0-10.664 4.763-10.664 10.648s4.777 10.647 10.664 10.647zM106.588 394.348c-5.886 0-10.663 4.777-10.663 10.68 0 5.87 4.777 10.647 10.663 10.647s10.648-4.777 10.648-10.647c0-5.903-4.762-10.68-10.648-10.68zM149.211 415.675c5.886 0 10.664-4.777 10.664-10.647 0-5.902-4.777-10.68-10.664-10.68-5.886 0-10.648 4.777-10.648 10.68 0 5.87 4.762 10.647 10.648 10.647zM191.85 394.348c-5.886 0-10.664 4.777-10.664 10.68 0 5.87 4.777 10.647 10.664 10.647s10.664-4.777 10.664-10.647c-.001-5.903-4.778-10.68-10.664-10.68zM362.389 436.987H149.211c-5.87.016-10.648 4.777-10.648 10.664 0 5.87 4.778 10.647 10.648 10.647h213.178c5.886 0 10.647-4.777 10.647-10.647 0-5.903-4.761-10.664-10.647-10.664zM234.488 394.348c-5.886 0-10.664 4.777-10.664 10.68 0 5.87 4.777 10.647 10.664 10.647 5.886 0 10.648-4.777 10.648-10.647 0-5.903-4.762-10.68-10.648-10.68zM277.112 394.348c-5.887 0-10.648 4.777-10.648 10.68 0 5.87 4.762 10.647 10.648 10.647s10.664-4.777 10.664-10.647c0-5.903-4.779-10.68-10.664-10.68zM319.75 394.348c-5.887 0-10.664 4.777-10.664 10.68 0 5.87 4.777 10.647 10.664 10.647 5.886 0 10.663-4.777 10.663-10.647 0-5.903-4.777-10.68-10.663-10.68zM362.389 394.348c-5.887 0-10.664 4.777-10.664 10.68 0 5.87 4.777 10.647 10.664 10.647 5.886 0 10.647-4.777 10.647-10.647 0-5.903-4.761-10.68-10.647-10.68zM405.012 394.348c-5.887 0-10.648 4.777-10.648 10.68 0 5.87 4.762 10.647 10.648 10.647s10.663-4.777 10.663-10.647c0-5.903-4.777-10.68-10.663-10.68zM85.261 362.373c-5.886 0-10.648 4.777-10.648 10.679 0 5.87 4.762 10.648 10.648 10.648s10.664-4.778 10.664-10.648c0-5.901-4.778-10.679-10.664-10.679zM127.9 362.373c-5.886 0-10.664 4.777-10.664 10.679 0 5.87 4.778 10.648 10.664 10.648s10.664-4.778 10.664-10.648c-.001-5.901-4.778-10.679-10.664-10.679zM170.538 383.7c5.886 0 10.648-4.778 10.648-10.648 0-5.901-4.762-10.679-10.648-10.679s-10.664 4.777-10.664 10.679c.001 5.87 4.779 10.648 10.664 10.648zM213.161 383.7c5.886 0 10.664-4.778 10.664-10.648 0-5.901-4.777-10.679-10.664-10.679s-10.648 4.777-10.648 10.679c0 5.87 4.762 10.648 10.648 10.648zM255.8 383.7c5.886 0 10.663-4.778 10.663-10.648 0-5.901-4.777-10.679-10.663-10.679s-10.664 4.777-10.664 10.679c0 5.87 4.778 10.648 10.664 10.648zM298.439 383.7c5.886 0 10.647-4.778 10.647-10.648 0-5.901-4.762-10.679-10.647-10.679s-10.663 4.777-10.663 10.679c0 5.87 4.777 10.648 10.663 10.648zM341.061 383.7c5.887 0 10.664-4.778 10.664-10.648 0-5.901-4.777-10.679-10.664-10.679-5.885 0-10.647 4.777-10.647 10.679-.001 5.87 4.762 10.648 10.647 10.648zM383.699 362.373c-5.885 0-10.663 4.777-10.663 10.679 0 5.87 4.778 10.648 10.663 10.648 5.887 0 10.664-4.778 10.664-10.648 0-5.901-4.777-10.679-10.664-10.679zM426.338 362.373c-5.886 0-10.663 4.777-10.663 10.679 0 5.87 4.777 10.648 10.663 10.648 5.887 0 10.648-4.778 10.648-10.648.001-5.901-4.761-10.679-10.648-10.679z" style="fill:#ccd1d9"/><path d="M287.791 213.169h-74.615v10.664c0 5.886 4.777 10.655 10.664 10.655h63.951c5.885 0 10.647-4.77 10.647-10.655v-10.664h-10.647z" style="fill:#aab2bc"/><path d="M95.92 394.35h21.311v10.68H95.92zM95.92 330.43h21.311v10.648H95.92zM138.56 330.43h21.312v10.648H138.56zM181.19 330.43h21.327v10.648H181.19zM223.83 330.43h21.312v10.648H223.83zM266.46 330.43h21.312v10.648H266.46zM309.09 330.43h21.327v10.648H309.09zM351.73 330.43h21.312v10.648H351.73zM394.36 330.43h21.312v10.648H394.36zM138.56 394.35h21.312v10.68H138.56zM181.19 394.35h21.327v10.68H181.19zM223.83 394.35h21.312v10.68H223.83zM266.46 394.35h21.312v10.68H266.46zM309.09 394.35h21.327v10.68H309.09zM351.73 394.35h21.312v10.68H351.73zM394.36 394.35h21.312v10.68H394.36zM415.67 362.37h21.312v10.679H415.67zM373.04 362.37h21.327v10.679H373.04zM330.41 362.37h21.312v10.679H330.41zM287.78 362.37h21.311v10.679H287.78zM245.14 362.37h21.327v10.679H245.14zM202.51 362.37h21.312v10.679H202.51zM159.87 362.37h21.312v10.679H159.87zM117.24 362.37h21.327v10.679H117.24zM74.61 362.37h21.312v10.679H74.61zM138.56 436.99h234.47v10.664H138.56z" style="fill:#ccd1d9"/><path d="M106.588 341.077c5.886 0 10.664-4.778 10.664-10.648 0-5.901-4.777-10.679-10.664-10.679-5.886 0-10.647 4.777-10.647 10.679 0 5.87 4.761 10.648 10.647 10.648zM149.227 341.077c5.886 0 10.664-4.778 10.664-10.648 0-5.901-4.777-10.679-10.664-10.679-5.886 0-10.664 4.777-10.664 10.679 0 5.87 4.778 10.648 10.664 10.648zM191.865 341.077c5.886 0 10.648-4.778 10.648-10.648 0-5.901-4.762-10.679-10.648-10.679s-10.664 4.777-10.664 10.679c.001 5.87 4.778 10.648 10.664 10.648zM234.488 341.077c5.886 0 10.664-4.778 10.664-10.648 0-5.901-4.778-10.679-10.664-10.679s-10.648 4.777-10.648 10.679c.001 5.87 4.762 10.648 10.648 10.648zM277.127 341.077c5.886 0 10.664-4.778 10.664-10.648 0-5.901-4.778-10.679-10.664-10.679-5.887 0-10.664 4.777-10.664 10.679 0 5.87 4.777 10.648 10.664 10.648zM319.766 341.077c5.886 0 10.647-4.778 10.647-10.648 0-5.901-4.762-10.679-10.647-10.679-5.887 0-10.664 4.777-10.664 10.679 0 5.87 4.777 10.648 10.664 10.648zM362.389 341.077c5.886 0 10.663-4.778 10.663-10.648 0-5.901-4.777-10.679-10.663-10.679-5.887 0-10.648 4.777-10.648 10.679-.001 5.87 4.761 10.648 10.648 10.648zM405.028 341.077c5.886 0 10.663-4.778 10.663-10.648 0-5.901-4.777-10.679-10.663-10.679-5.887 0-10.664 4.777-10.664 10.679-.001 5.87 4.777 10.648 10.664 10.648zM106.588 383.7c-5.886 0-10.663 4.777-10.663 10.647 0 5.901 4.777 10.68 10.663 10.68s10.648-4.778 10.648-10.68c0-5.869-4.762-10.647-10.648-10.647zM149.211 405.028c5.886 0 10.664-4.778 10.664-10.68 0-5.87-4.777-10.647-10.664-10.647-5.886 0-10.648 4.777-10.648 10.647 0 5.901 4.762 10.68 10.648 10.68zM191.85 383.7c-5.886 0-10.664 4.777-10.664 10.647 0 5.901 4.777 10.68 10.664 10.68s10.664-4.778 10.664-10.68c-.001-5.869-4.778-10.647-10.664-10.647zM362.389 426.323H149.211c-5.87.016-10.648 4.777-10.648 10.663s4.778 10.648 10.648 10.664h213.178c5.886 0 10.647-4.778 10.647-10.664s-4.761-10.663-10.647-10.663zM234.488 383.7c-5.886 0-10.664 4.777-10.664 10.647 0 5.901 4.777 10.68 10.664 10.68 5.886 0 10.648-4.778 10.648-10.68 0-5.869-4.762-10.647-10.648-10.647zM277.112 383.7c-5.887 0-10.648 4.777-10.648 10.647 0 5.901 4.762 10.68 10.648 10.68s10.664-4.778 10.664-10.68c0-5.869-4.779-10.647-10.664-10.647zM319.75 383.7c-5.887 0-10.664 4.777-10.664 10.647 0 5.901 4.777 10.68 10.664 10.68 5.886 0 10.663-4.778 10.663-10.68 0-5.869-4.777-10.647-10.663-10.647zM362.389 383.7c-5.887 0-10.664 4.777-10.664 10.647 0 5.901 4.777 10.68 10.664 10.68 5.886 0 10.647-4.778 10.647-10.68 0-5.869-4.761-10.647-10.647-10.647zM405.012 383.7c-5.887 0-10.648 4.777-10.648 10.647 0 5.901 4.762 10.68 10.648 10.68s10.663-4.778 10.663-10.68c0-5.869-4.777-10.647-10.663-10.647zM85.261 351.725c-5.886 0-10.648 4.777-10.648 10.648 0 5.901 4.762 10.679 10.648 10.679s10.664-4.777 10.664-10.679c0-5.871-4.778-10.648-10.664-10.648zM127.9 351.725c-5.886 0-10.664 4.777-10.664 10.648 0 5.901 4.778 10.679 10.664 10.679s10.664-4.777 10.664-10.679c-.001-5.871-4.778-10.648-10.664-10.648zM170.538 373.052c5.886 0 10.648-4.777 10.648-10.679 0-5.871-4.762-10.648-10.648-10.648s-10.664 4.777-10.664 10.648c.001 5.902 4.779 10.679 10.664 10.679zM213.161 373.052c5.886 0 10.664-4.777 10.664-10.679 0-5.871-4.777-10.648-10.664-10.648s-10.648 4.777-10.648 10.648c0 5.902 4.762 10.679 10.648 10.679zM255.8 373.052c5.886 0 10.663-4.777 10.663-10.679 0-5.871-4.777-10.648-10.663-10.648s-10.664 4.777-10.664 10.648c0 5.902 4.778 10.679 10.664 10.679zM298.439 373.052c5.886 0 10.647-4.777 10.647-10.679 0-5.871-4.762-10.648-10.647-10.648s-10.663 4.777-10.663 10.648c0 5.902 4.777 10.679 10.663 10.679zM341.061 373.052c5.887 0 10.664-4.777 10.664-10.679 0-5.871-4.777-10.648-10.664-10.648-5.885 0-10.647 4.777-10.647 10.648-.001 5.902 4.762 10.679 10.647 10.679zM383.699 351.725c-5.885 0-10.663 4.777-10.663 10.648 0 5.901 4.778 10.679 10.663 10.679 5.887 0 10.664-4.777 10.664-10.679 0-5.871-4.777-10.648-10.664-10.648zM426.338 351.725c-5.886 0-10.663 4.777-10.663 10.648 0 5.901 4.777 10.679 10.663 10.679 5.887 0 10.648-4.777 10.648-10.679.001-5.871-4.761-10.648-10.648-10.648z" style="fill:#f5f7fa"/><path d="M373.036 0v63.95h63.951z" style="fill:#ccd1d9"/></svg>