<svg xmlns="http://www.w3.org/2000/svg" xml:space="preserve" viewBox="0 0 480.33 480.33"><path d="M480.08 438.834v27.14c0 2.21-1.79 4-4 4H4.25c-2.21 0-4-1.79-4-4v-344.48c0-2.21 1.79-4 4-4h7.42v-15.59c0-2.21 1.79-4 4-4h16.19v-6.6c0-2.21 1.79-4 4-4h16c2.21 0 4 1.79 4 4v6.6h32v-15.9c0-2.21 1.79-4 4-4h16c2.21 0 4 1.79 4 4v15.9h37.57c2.2 0 4 1.79 4 4v15.59h284.68l6.6-15.46a15.267 15.267 0 0 1-2.93-10.53l-24.25-23.71 2.58 8.22c1.3 4.13-.45 8.61-4.18 10.64-3.46 1.88-8.74 2.82-15.16 2.82-7.79 0-17.24-1.38-27.12-4.1-18.01-4.95-32.53-13.01-36.99-20.53-2.16-3.65-1.38-8.39 1.86-11.28l23.82-21.27 4.5-16.29c2.37-6.87 15.1-6.74 26.87-3.5 11.77 3.23 22.78 9.64 21.29 16.75l-1.05 3.9 45.65 44.64c7.28 1.21 12.85 7.53 12.85 15.15 0 4.03-1.57 7.69-4.12 10.43l-6.02 14.12h13.77c2.21 0 4 1.79 4 4v317.34zm-8 23.14v-19.14H8.25v19.14h463.83zm0-27.14v-309.34H458.9l-15.61 36.6c3.66 1.98 6.52 4.33 8.47 6.93 1.95 2.6 2.98 5.44 2.98 8.4v14.84c0 12.37-17.43 21.71-40.55 21.71-23.11 0-40.54-9.34-40.54-21.71v-14.84c0-12.38 17.43-21.71 40.54-21.71 2.54 0 5.04.13 7.46.36l13.05-30.58H153.43v186.11c0 2.21-1.8 4-4 4H15.67c-2.21 0-4-1.79-4-4v-186.11H8.25v309.34h463.83zm-7.63-341.89c0-4.07-3.31-7.38-7.37-7.38-4.07 0-7.37 3.31-7.37 7.38 0 4.06 3.3 7.37 7.37 7.37 4.06 0 7.37-3.31 7.37-7.37zm-32.47 75.26 25.56-59.91c-.15 0-.31.02-.46.02-2.07 0-4.05-.42-5.86-1.16l-24.99 58.6c-.6 1.39-.02 2.53.26 2.95s1.1 1.4 2.61 1.4c1.26 0 2.39-.74 2.88-1.9zm17.82-88.8-38.27-37.43-.99 3.59 1.91 6.08L445 83.464c1.3-1.66 2.93-3.05 4.8-4.06zm-3.06 112.86v-1.58c-7.27 5.2-18.92 8.45-32.55 8.45s-25.27-3.25-32.54-8.45v1.58c0 7.84 17.18 13.71 32.54 13.71 15.37 0 32.55-5.87 32.55-13.71zm0-14.84c0-2.7-2.41-5.55-6.6-7.94l-.8 1.86a11.107 11.107 0 0 1-10.24 6.76c-3.74 0-7.22-1.86-9.28-4.99a11.077 11.077 0 0 1-1.39-9.27c-1.39-.08-2.81-.13-4.24-.13-15.36 0-32.54 5.86-32.54 13.71 0 7.85 17.18 13.71 32.54 13.71s32.55-5.86 32.55-13.71zm-34.63-97.8c.36-.2.52-.73.37-1.21l-8.31-26.43c-1.92.56-4.18.81-6.65.81-4.4 0-9.43-.8-14.31-2.14-7.6-2.1-14.88-5.51-18.69-9.58l-20.68 18.45c-.37.34-.51.88-.3 1.24 2.83 4.77 14.81 12.1 32.23 16.9 17.42 4.79 31.47 4.61 36.34 1.96zm-9.47-35.52 2.34-8.49c-.31.03-.62.06-.95.08-.54.02-1.1.04-1.67.04-4.27 0-9.32-.76-14.45-2.16-5.8-1.6-11.11-3.88-14.93-6.43-.27-.18-.52-.36-.78-.54l-2.33 8.49c.98 1.59 6.21 5.3 15.47 7.84 9.25 2.55 15.65 2.04 17.3 1.17zm-12.6-18.25c8.05 2.22 13.95 2.12 16.43 1.49-1.81-1.82-6.83-4.91-14.88-7.13-8.06-2.22-13.95-2.12-16.44-1.49 1.81 1.82 6.83 4.92 14.89 7.13zm-244.61 281.75v-2.37H19.67v2.37h125.76zm0-10.37v-2.89H19.67v2.89h125.76zm0-10.89v-2.89H19.67v2.89h125.76zm0-10.89v-2.89H19.67v2.89h125.76zm0-10.89v-158.66H19.67v158.66h125.76zm-41.57-166.66v-11.9h-8v11.9h8zm-56 0v-2.6h-8v2.6h8z"/><path d="M8.25 442.834h463.83v19.14H8.25z" style="fill:#ce9d61"/><path d="M472.08 125.494v309.34H8.25v-309.34h3.42v186.11c0 2.21 1.79 4 4 4h133.76c2.2 0 4-1.79 4-4v-186.11H434.7l-13.05 30.58c-2.42-.23-4.92-.36-7.46-.36-23.11 0-40.54 9.33-40.54 21.71v14.84c0 12.37 17.43 21.71 40.54 21.71 23.12 0 40.55-9.34 40.55-21.71v-14.84c0-2.96-1.03-5.8-2.98-8.4-1.95-2.6-4.81-4.95-8.47-6.93l15.61-36.6h13.18zm-5.74 222.14v-45.7c0-2.2-1.79-4-4-4s-4 1.8-4 4v30.57c-2.94-2.01-6.5-3.2-10.33-3.2-4.27 0-8.19 1.48-11.31 3.94a18.218 18.218 0 0 0-11.36-3.94c-4.2 0-8.16 1.41-11.36 3.94-3.12-2.46-7.04-3.94-11.31-3.94-3.83 0-7.39 1.19-10.33 3.2v-30.57c0-2.2-1.79-4-4-4s-4 1.8-4 4v45.7c0 10.11 8.22 18.33 18.33 18.33 10.1 0 18.33-8.22 18.33-18.33 0-2.94-.72-5.71-1.95-8.18 1.78-1.38 3.97-2.15 6.29-2.15 2.33 0 4.52.77 6.3 2.15a18.165 18.165 0 0 0-1.95 8.18c0 10.11 8.22 18.33 18.32 18.33 10.11 0 18.33-8.22 18.33-18.33zm-79.03-100.64v-32.81c0-2.21-1.79-4-4-4h-34.19v-36.21c0-2.21-1.79-4-4-4H207.65c-2.21 0-4 1.79-4 4v36.21h-34.19c-2.21 0-4 1.79-4 4v6.03h-5.6c-2.21 0-4 1.79-4 4v49.99c0 2.2 1.79 4 4 4h13.71v64.73c0 .29.03.56.09.82 1.47 16.59 2.21 33.43 2.21 50.07v11.13c0 7.73 6.29 14.02 14.02 14.02h172.98c7.73 0 14.02-6.29 14.02-14.02v-11.13c0-16.65.75-33.48 2.22-50.07.05-.26.08-.53.08-.82v-83.73c0-3-.83-5.8-2.26-8.21h6.38c2.21 0 4-1.79 4-4zm-241.39 140.89v-13.58c0-1.03-.39-2.05-1.17-2.83l-49.33-49.34a4.004 4.004 0 0 0-5.66 0l-38.79 38.8a3.98 3.98 0 0 0-1.17 2.82v13.59c0 1.06.42 2.07 1.17 2.82l49.33 49.34c.78.78 1.81 1.17 2.83 1.17s2.05-.39 2.83-1.17l38.79-38.79c.75-.75 1.17-1.77 1.17-2.83zm-70.53 33.3c1.04-1.96.3-4.38-1.65-5.41l-54-28.67a3.996 3.996 0 0 0-5.41 1.66 3.998 3.998 0 0 0 1.65 5.41l54 28.66a3.996 3.996 0 0 0 5.41-1.65z" style="fill:#efbf7f"/><path d="M466.34 301.934v45.7c0 10.11-8.22 18.33-18.33 18.33-10.1 0-18.32-8.22-18.32-18.33 0-2.94.71-5.71 1.95-8.18a10.233 10.233 0 0 0-6.3-2.15c-2.32 0-4.51.77-6.29 2.15 1.23 2.47 1.95 5.24 1.95 8.18 0 10.11-8.23 18.33-18.33 18.33-10.11 0-18.33-8.22-18.33-18.33v-45.7c0-2.2 1.79-4 4-4s4 1.8 4 4v30.57c2.94-2.01 6.5-3.2 10.33-3.2 4.27 0 8.19 1.48 11.31 3.94a18.24 18.24 0 0 1 11.36-3.94c4.2 0 8.17 1.41 11.36 3.94 3.12-2.46 7.04-3.94 11.31-3.94 3.83 0 7.39 1.19 10.33 3.2v-30.57c0-2.2 1.79-4 4-4s4 1.8 4 4zm-8 45.7c0-5.69-4.63-10.33-10.33-10.33-5.69 0-10.32 4.64-10.32 10.33s4.63 10.33 10.32 10.33c5.7 0 10.33-4.64 10.33-10.33zm-45.34 0c0-5.69-4.64-10.33-10.33-10.33-5.7 0-10.33 4.64-10.33 10.33s4.63 10.33 10.33 10.33c5.69 0 10.33-4.64 10.33-10.33z"/><path d="M457.08 85.564c4.06 0 7.37 3.31 7.37 7.38 0 4.06-3.31 7.37-7.37 7.37-4.07 0-7.37-3.31-7.37-7.37 0-4.07 3.3-7.38 7.37-7.38z" style="fill:#e8653d"/><path d="m457.54 108.294-25.56 59.91a3.111 3.111 0 0 1-2.88 1.9c-1.51 0-2.33-.98-2.61-1.4s-.86-1.56-.26-2.95l24.99-58.6c1.81.74 3.79 1.16 5.86 1.16.15 0 .31-.02.46-.02z" style="fill:#5fb7f9"/><path d="M448.01 337.304c5.7 0 10.33 4.64 10.33 10.33s-4.63 10.33-10.33 10.33c-5.69 0-10.32-4.64-10.32-10.33s4.63-10.33 10.32-10.33z" style="fill:#d4f3fc"/><path d="m411.53 41.974 38.27 37.43c-1.87 1.01-3.5 2.4-4.8 4.06l-32.55-31.82-1.91-6.08.99-3.59z" style="fill:#5fb7f9"/><path d="M446.74 190.684v1.58c0 7.84-17.18 13.71-32.55 13.71-15.36 0-32.54-5.87-32.54-13.71v-1.58c7.27 5.2 18.91 8.45 32.54 8.45s25.28-3.25 32.55-8.45z" style="fill:#e8653d"/><path d="M440.14 169.484c4.19 2.39 6.6 5.24 6.6 7.94 0 7.85-17.19 13.71-32.55 13.71-15.36 0-32.54-5.86-32.54-13.71 0-7.85 17.18-13.71 32.54-13.71 1.43 0 2.85.05 4.24.13-.92 3.13-.44 6.51 1.39 9.27 2.06 3.13 5.54 4.99 9.28 4.99 4.47 0 8.49-2.65 10.24-6.76l.8-1.86zM412.48 78.414c.15.48-.01 1.01-.37 1.21-4.87 2.65-18.92 2.83-36.34-1.96-17.42-4.8-29.4-12.13-32.23-16.9-.21-.36-.07-.9.3-1.24l20.68-18.45c3.81 4.07 11.09 7.48 18.69 9.58 4.88 1.34 9.91 2.14 14.31 2.14 2.47 0 4.73-.25 6.65-.81l8.31 26.43z" style="fill:#e8653d"/><path d="M402.67 337.304c5.69 0 10.33 4.64 10.33 10.33s-4.64 10.33-10.33 10.33c-5.7 0-10.33-4.64-10.33-10.33s4.63-10.33 10.33-10.33z" style="fill:#d4f3fc"/><path d="m404.98 35.614-2.34 8.49c-1.65.87-8.05 1.38-17.3-1.17-9.26-2.54-14.49-6.25-15.47-7.84l2.33-8.49c.26.18.51.36.78.54 3.82 2.55 9.13 4.83 14.93 6.43 5.13 1.4 10.18 2.16 14.45 2.16.57 0 1.13-.02 1.67-.04.33-.02.64-.05.95-.08zM406.47 27.344c-2.48.63-8.38.73-16.43-1.49-8.06-2.21-13.08-5.31-14.89-7.13 2.49-.63 8.38-.73 16.44 1.49 8.05 2.22 13.07 5.31 14.88 7.13z" style="fill:#5fb7f9"/><path d="M387.31 214.184v32.81c0 2.21-1.79 4-4 4h-6.38c1.43 2.41 2.26 5.21 2.26 8.21v83.73c0 .29-.03.56-.08.82a569.405 569.405 0 0 0-2.22 50.07v11.13c0 7.73-6.29 14.02-14.02 14.02H189.89c-7.73 0-14.02-6.29-14.02-14.02v-11.13c0-16.64-.74-33.48-2.21-50.07-.06-.26-.09-.53-.09-.82v-64.73h-13.71c-2.21 0-4-1.8-4-4v-49.99c0-2.21 1.79-4 4-4h5.6v-6.03c0-2.21 1.79-4 4-4h34.19v-36.21c0-2.21 1.79-4 4-4h137.47c2.21 0 4 1.79 4 4v36.21h34.19c2.21 0 4 1.79 4 4zm-8 28.81v-24.81h-2.76v24.81h2.76zm-8.12 95.94v-79.73c0-4.53-3.68-8.21-8.21-8.21-4.14 0-7.57 3.02-8.16 7.19-5.49 38.78-39.21 68.03-78.43 68.03-39.23 0-72.95-29.25-78.44-68.03-.59-4.17-4.02-7.19-8.15-7.19-4.54 0-8.23 3.68-8.23 8.21v79.73h189.62zm-.38 8H181.96c1.27 15.56 1.91 31.31 1.91 46.89v11.13c0 3.32 2.71 6.02 6.02 6.02h172.98c3.32 0 6.02-2.7 6.02-6.02v-11.13c0-15.58.65-31.33 1.92-46.89zm-2.26-103.94v-24.81h-19.43v10.89h10.78c2.21 0 4 1.79 4 4s-1.79 4-4 4H192.87c-2.21 0-4-1.79-4-4s1.79-4 4-4h10.78v-10.89h-19.44v24.81h184.34zm-21.7 14.4-.03.02c-4.58 4.59-10.44 7.44-16.77 8.23-1.91 27.48-24.54 49.36-52.33 50.03-.44.01-.89.02-1.33.02-28.41 0-51.73-22.13-53.67-50.05-6.33-.79-12.19-3.64-16.78-8.23l-.01-.01c5.08 34.69 35.31 60.81 70.46 60.81.46 0 .91 0 1.36-.02 34.57-.66 64.09-26.56 69.1-60.8zm-5.68-5.63.77-.77H210.83l.77.77c3.95 3.94 9.19 6.12 14.78 6.12h100.01c5.58 0 10.83-2.18 14.78-6.12zm-.05-22.69v-51.1H211.65v51.1h129.47zm-19.11 36.81h-15.25l14.73 3.94c.23-1.29.4-2.61.52-3.94zm-2.58 11.67-14.74-3.95 13.2 7.63c.57-1.2 1.08-2.42 1.54-3.68zm-5.55 10.6-13.19-7.62 10.77 10.77c.85-1.01 1.66-2.07 2.42-3.15zm-8.07 8.81-10.77-10.77 7.61 13.19c1.09-.76 2.14-1.57 3.16-2.42zm-10.08 6.43-7.62-13.2 3.95 14.74c1.25-.46 2.47-.98 3.67-1.54zm-6.23-37.51h-26.23c1.71 5.62 6.94 9.72 13.11 9.72 6.17 0 11.4-4.1 13.12-9.72zm-5.17 41.11-3.95-14.73v15.25c1.33-.12 2.65-.29 3.95-.52zm-11.95.52v-15.25l-3.95 14.73c1.3.23 2.62.4 3.95.52zm-11.68-2.58 3.95-14.74-7.62 13.2c1.2.56 2.42 1.08 3.67 1.54zm-10.59-5.56 7.61-13.18-10.76 10.76c1.01.86 2.07 1.66 3.15 2.42zm-8.81-8.07 10.77-10.77-13.19 7.61c.77 1.09 1.57 2.14 2.42 3.16zm-6.43-10.08 13.2-7.62-14.73 3.95c.45 1.25.97 2.47 1.53 3.67zm-3.59-11.4 14.71-3.94h-15.23c.11 1.33.29 2.64.52 3.94zm-55.07-26.83v-24.81h-2.75v24.81h2.75zm-2.64 27.21v-19.21h-4.11c-2.21 0-4-1.79-4-4v-18.78h-1.6v41.99h9.71z"/><path d="M376.55 218.185h2.76v24.81h-2.76z" style="fill:#e8653d"/><path d="M371.19 259.204v79.73H181.57v-79.73c0-4.53 3.69-8.21 8.23-8.21 4.13 0 7.56 3.02 8.15 7.19 5.49 38.78 39.21 68.03 78.44 68.03 39.22 0 72.94-29.25 78.43-68.03.59-4.17 4.02-7.19 8.16-7.19 4.53 0 8.21 3.68 8.21 8.21zm-164.8 70.7c0-2.2-1.79-4-4-4h-7.68a3.999 3.999 0 1 0 0 8h7.68c2.21 0 4-1.79 4-4z" style="fill:#5fb7f9"/><path d="M181.96 346.934h188.85a578.396 578.396 0 0 0-1.92 46.89v11.13c0 3.32-2.7 6.02-6.02 6.02H189.89c-3.31 0-6.02-2.7-6.02-6.02v-11.13c0-15.58-.64-31.33-1.91-46.89zm180.91 46.5v-29.34c0-6.95-5.66-12.61-12.61-12.61h-148.8c-6.96 0-12.62 5.66-12.62 12.61v29.34c0 6.96 5.66 12.61 12.62 12.61h148.8c6.95 0 12.61-5.65 12.61-12.61z" style="fill:#4096c1"/><path d="M368.55 218.184v24.81H184.21v-24.81h19.44v10.89h-10.78c-2.21 0-4 1.79-4 4s1.79 4 4 4H359.9c2.21 0 4-1.79 4-4s-1.79-4-4-4h-10.78v-10.89h19.43z" style="fill:#5fb7f9"/><path d="M362.87 364.094v29.34c0 6.96-5.66 12.61-12.61 12.61h-148.8c-6.96 0-12.62-5.65-12.62-12.61v-29.34c0-6.95 5.66-12.61 12.62-12.61h148.8c6.95 0 12.61 5.66 12.61 12.61zm-8 29.34v-2.91H343.1v7.52h7.16c2.54 0 4.61-2.07 4.61-4.61zm0-10.91v-7.52h-4.01v7.52h4.01zm0-15.52v-2.91c0-2.54-2.07-4.61-4.61-4.61h-7.16v7.52h11.77zm-12.01 15.52v-7.52h-7.52v7.52h7.52zm-7.76 15.52v-7.52h-13.08v7.52h13.08zm0-31.04v-7.52h-13.08v7.52h13.08zm-7.76 15.52v-7.52h-13.09v7.52h13.09zm-13.32 15.52v-7.52h-13.08v7.52h13.08zm0-31.04v-7.52h-13.08v7.52h13.08zm-7.77 15.52v-7.52h-13.07v7.52h13.07zm-13.31 15.52v-7.52h-34.16v7.52h34.16zm0-31.04v-7.52h-13.08v7.52h13.08zm-7.76 15.52v-7.52H272.1v7.52h13.08zm-13.32-15.52v-7.52h-13.08v7.52h13.08zm-7.76 15.52v-7.52h-13.08v7.52h13.08zm-13.32 15.52v-7.52H237.7v7.52h13.08zm0-31.04v-7.52H237.7v7.52h13.08zm-7.76 15.52v-7.52h-13.08v7.52h13.08zm-13.32 15.52v-7.52h-13.08v7.52h13.08zm0-31.04v-7.52h-13.08v7.52h13.08zm-7.76 15.52v-7.52h-13.08v7.52h13.08zm-13.32 15.52v-7.52h-11.78v2.91a4.62 4.62 0 0 0 4.62 4.61h7.16zm0-31.04v-7.52h-7.16a4.62 4.62 0 0 0-4.62 4.61v2.91h11.78zm-7.76 15.52v-7.52h-4.02v7.52h4.02z"/><path d="M354.87 390.524v2.91c0 2.54-2.07 4.61-4.61 4.61h-7.16v-7.52h11.77zM350.86 375.005h4.01v7.52h-4.01zM354.87 364.094v2.91H343.1v-7.52h7.16c2.54 0 4.61 2.07 4.61 4.61zM346.82 257.414l.03-.02c-5.01 34.24-34.53 60.14-69.1 60.8l-.03-2.52c27.79-.67 50.42-22.55 52.33-50.03 6.33-.79 12.19-3.64 16.77-8.23zM335.34 375.005h7.52v7.52h-7.52z" style="fill:#e8653d"/><path d="m341.94 250.994-.77.77c-3.95 3.94-9.2 6.12-14.78 6.12H226.38c-5.59 0-10.83-2.18-14.78-6.12l-.77-.77h131.11z" style="fill:#3285a5"/><path d="M341.12 177.974v51.1H211.65v-51.1h129.47zm-9.49 11.44c0-2.21-1.79-4-4-4h-87.1c-2.21 0-4 1.79-4 4s1.79 4 4 4h87.1c2.21 0 4-1.79 4-4zm0 14.28c0-2.21-1.79-4-4-4H225.14c-2.21 0-4 1.79-4 4s1.79 4 4 4h102.49c2.21 0 4-1.79 4-4zm0 14.28c0-2.21-1.79-4-4-4H225.14c-2.21 0-4 1.79-4 4s1.79 4 4 4h102.49c2.21 0 4-1.79 4-4z" style="fill:#e6e6e6"/><path d="M322.02 390.525h13.08v7.52h-13.08zM322.02 359.485h13.08v7.52h-13.08z" style="fill:#e8653d"/><path d="M327.63 185.414c2.21 0 4 1.79 4 4s-1.79 4-4 4h-87.1c-2.21 0-4-1.79-4-4s1.79-4 4-4h87.1zM327.63 199.694c2.21 0 4 1.79 4 4s-1.79 4-4 4H225.14c-2.21 0-4-1.79-4-4s1.79-4 4-4h102.49zM327.63 213.974c2.21 0 4 1.79 4 4s-1.79 4-4 4H225.14c-2.21 0-4-1.79-4-4s1.79-4 4-4h102.49z"/><path d="M314.25 375.005h13.09v7.52h-13.09z" style="fill:#e8653d"/><path d="M306.76 265.884h15.25c-.12 1.33-.29 2.65-.52 3.94l-14.73-3.94zM304.69 273.604l14.74 3.95c-.46 1.26-.97 2.48-1.54 3.68l-13.2-7.63z" style="fill:#5fb7f9"/><path d="M300.94 390.525h13.08v7.52h-13.08zM300.94 359.485h13.08v7.52h-13.08z" style="fill:#e8653d"/><path d="m300.69 280.534 13.19 7.62c-.76 1.08-1.57 2.14-2.42 3.15l-10.77-10.77z" style="fill:#5fb7f9"/><path d="M293.18 375.005h13.07v7.52h-13.07z" style="fill:#e8653d"/><path d="m295.04 286.194 10.77 10.77c-1.02.85-2.07 1.66-3.16 2.42l-7.61-13.19zM288.11 290.194l7.62 13.2c-1.2.56-2.42 1.08-3.67 1.54l-3.95-14.74z" style="fill:#5fb7f9"/><path d="M258.78 390.525h34.16v7.52h-34.16zM279.86 359.485h13.08v7.52h-13.08zM263.27 265.884h26.23c-1.72 5.62-6.95 9.72-13.12 9.72-6.17 0-11.4-4.1-13.11-9.72zM272.1 375.005h13.08v7.52H272.1z" style="fill:#e8653d"/><path d="m280.38 292.264 3.95 14.73c-1.3.23-2.62.4-3.95.52v-15.25z" style="fill:#5fb7f9"/><path d="m277.72 315.674.03 2.52c-.45.02-.9.02-1.36.02-35.15 0-65.38-26.12-70.46-60.81l.01.01c4.59 4.59 10.45 7.44 16.78 8.23 1.94 27.92 25.26 50.05 53.67 50.05.44 0 .89-.01 1.33-.02z" style="fill:#e8653d"/><path d="M272.38 292.264v15.25c-1.33-.12-2.65-.29-3.95-.52l3.95-14.73z" style="fill:#5fb7f9"/><path d="M258.78 359.485h13.08v7.52h-13.08z" style="fill:#e8653d"/><path d="m264.65 290.194-3.95 14.74c-1.25-.46-2.47-.98-3.67-1.54l7.62-13.2z" style="fill:#5fb7f9"/><path d="M251.02 375.005h13.08v7.52h-13.08z" style="fill:#e8653d"/><path d="m257.72 286.194-7.61 13.18c-1.08-.76-2.14-1.56-3.15-2.42l10.76-10.76zM252.07 280.534l-10.77 10.77c-.85-1.02-1.65-2.07-2.42-3.16l13.19-7.61z" style="fill:#5fb7f9"/><path d="M237.7 390.525h13.08v7.52H237.7zM237.7 359.485h13.08v7.52H237.7z" style="fill:#e8653d"/><path d="m248.07 273.604-13.2 7.62c-.56-1.2-1.08-2.42-1.53-3.67l14.73-3.95zM245.99 265.884l-14.71 3.94c-.23-1.3-.41-2.61-.52-3.94h15.23z" style="fill:#5fb7f9"/><path d="M229.94 375.005h13.08v7.52h-13.08zM216.62 390.525h13.08v7.52h-13.08zM216.62 359.485h13.08v7.52h-13.08zM208.86 375.005h13.08v7.52h-13.08zM208.62 390.524v7.52h-7.16a4.62 4.62 0 0 1-4.62-4.61v-2.91h11.78zM208.62 359.484v7.52h-11.78v-2.91a4.62 4.62 0 0 1 4.62-4.61h7.16z" style="fill:#e8653d"/><path d="M202.39 325.904a3.999 3.999 0 1 1 0 8h-7.68a3.999 3.999 0 1 1 0-8h7.68z"/><path d="M196.84 375.005h4.02v7.52h-4.02zM173.46 218.185h2.75v24.81h-2.75z" style="fill:#e8653d"/><path d="M173.57 259.204v11h-9.71v-41.99h1.6v18.78c0 2.21 1.79 4 4 4h4.11v8.21z" style="fill:#5fb7f9"/><path d="M145.92 374.304v13.58c0 1.06-.42 2.08-1.17 2.83l-38.79 38.79c-.78.78-1.81 1.17-2.83 1.17s-2.05-.39-2.83-1.17l-49.33-49.34a3.98 3.98 0 0 1-1.17-2.82v-13.59c0-1.06.42-2.07 1.17-2.82l38.79-38.8a4.004 4.004 0 0 1 5.66 0l49.33 49.34c.78.78 1.17 1.8 1.17 2.83zm-8 11.92v-2.27l-30.79 30.79v2.27l30.79-30.79zm-34.79 21.21 33.14-33.13-43.68-43.68-33.14 33.13 43.68 43.68zm-4 9.58v-2.27l-41.33-41.33v2.27l41.33 41.33z"/><path d="M19.67 305.235h125.76v2.37H19.67zM19.67 294.344h125.76v2.89H19.67zM19.67 283.455h125.76v2.89H19.67zM19.67 272.564h125.76v2.89H19.67z" style="fill:#b3b3b3"/><path d="M145.43 105.904v158.66H19.67v-158.66h125.76zm-7.64 12c0-2.21-1.79-4-4-4H47.86c-2.21 0-4 1.79-4 4s1.79 4 4 4h85.93c2.21 0 4-1.79 4-4zm0 14.48c0-2.21-1.79-4-4-4H31.3c-2.21 0-4 1.79-4 4s1.79 4 4 4h102.49c2.21 0 4-1.79 4-4zm0 14.49c0-2.21-1.79-4-4-4H31.3c-2.21 0-4 1.79-4 4s1.79 4 4 4h102.49c2.21 0 4-1.79 4-4zm0 43.46c0-2.21-1.79-4-4-4H47.86c-2.21 0-4 1.79-4 4s1.79 4 4 4h85.93c2.21 0 4-1.79 4-4zm0 14.48c0-2.2-1.79-4-4-4H31.3a3.999 3.999 0 1 0 0 8h102.49c2.21 0 4-1.79 4-4zm0 14.49c0-2.21-1.79-4-4-4H31.3c-2.21 0-4 1.79-4 4s1.79 4 4 4h102.49c2.21 0 4-1.79 4-4zm-18.6 14.49c0-2.21-1.79-4-4-4H31.3c-2.21 0-4 1.79-4 4s1.79 4 4 4h83.89c2.21 0 4-1.79 4-4zm-20.66-72.43c0-2.21-1.79-4-4-4H31.3c-2.21 0-4 1.79-4 4s1.79 4 4 4h63.23c2.21 0 4-1.79 4-4z" style="fill:#e6e6e6"/><path d="M137.92 383.954v2.27l-30.79 30.79v-2.27z" style="fill:#fcf6ca"/><path d="M133.79 113.904c2.21 0 4 1.79 4 4s-1.79 4-4 4H47.86c-2.21 0-4-1.79-4-4s1.79-4 4-4h85.93zM133.79 128.384c2.21 0 4 1.79 4 4s-1.79 4-4 4H31.3c-2.21 0-4-1.79-4-4s1.79-4 4-4h102.49zM133.79 142.874c2.21 0 4 1.79 4 4s-1.79 4-4 4H31.3c-2.21 0-4-1.79-4-4s1.79-4 4-4h102.49zM133.79 186.334c2.21 0 4 1.79 4 4s-1.79 4-4 4H47.86c-2.21 0-4-1.79-4-4s1.79-4 4-4h85.93zM133.79 200.814a3.999 3.999 0 1 1 0 8H31.3a3.999 3.999 0 1 1 0-8h102.49zM133.79 215.304c2.21 0 4 1.79 4 4s-1.79 4-4 4H31.3c-2.21 0-4-1.79-4-4s1.79-4 4-4h102.49z"/><path d="m136.27 374.304-33.14 33.13-43.68-43.68 33.14-33.13 43.68 43.68zm-38.58-25.17a4.008 4.008 0 0 0 0-5.66 4.008 4.008 0 0 0-5.66 0l-18.33 18.34a3.996 3.996 0 0 0 2.83 6.82c1.02 0 2.04-.39 2.83-1.17l18.33-18.33z" style="fill:#e8653d"/><path d="M115.19 229.794c2.21 0 4 1.79 4 4s-1.79 4-4 4H31.3c-2.21 0-4-1.79-4-4s1.79-4 4-4h83.89z"/><path d="M95.86 86.004h8v11.9h-8z" style="fill:#e8653d"/><path d="M99.13 414.744v2.27l-41.33-41.33v-2.27z" style="fill:#fcf6ca"/><path d="M97.69 343.474a4.008 4.008 0 0 1 0 5.66l-18.33 18.33c-.79.78-1.81 1.17-2.83 1.17a3.996 3.996 0 0 1-2.83-6.82l18.33-18.34a4.008 4.008 0 0 1 5.66 0zM94.53 157.364c2.21 0 4 1.79 4 4s-1.79 4-4 4H31.3c-2.21 0-4-1.79-4-4s1.79-4 4-4h63.23zM73.74 415.774a3.993 3.993 0 0 1 1.65 5.41 3.996 3.996 0 0 1-5.41 1.65l-54-28.66a3.998 3.998 0 0 1-1.65-5.41 3.996 3.996 0 0 1 5.41-1.66l54 28.67z"/><path d="M39.86 95.304h8v2.6h-8z" style="fill:#5fb7f9"/></svg>